<mxfile><diagram id="WYq8GOCfq9GIUAZUDXxE" name="Page-1"><mxGraphModel dx="2490" dy="2207" grid="1" gridSize="10" guides="1" tooltips="1" connect="1" arrows="1" fold="1" page="1" pageScale="1" pageWidth="827" pageHeight="1169" math="0" shadow="0"><root><mxCell id="0"/><mxCell id="1" parent="0"/><mxCell id="28" value="" style="edgeStyle=none;html=1;fontSize=14;entryX=0.5;entryY=0;entryDx=0;entryDy=0;" parent="1" source="24" target="29" edge="1"><mxGeometry relative="1" as="geometry"><mxPoint x="567" y="294" as="targetPoint"/></mxGeometry></mxCell><mxCell id="24" value="ESG_Topic" style="strokeWidth=2;html=1;shape=mxgraph.flowchart.start_2;whiteSpace=wrap;fontSize=14;" parent="1" vertex="1"><mxGeometry x="517" y="94" width="100" height="100" as="geometry"/></mxCell><mxCell id="128" style="edgeStyle=none;html=1;entryX=0.5;entryY=0;entryDx=0;entryDy=0;" edge="1" parent="1" source="29" target="32"><mxGeometry relative="1" as="geometry"/></mxCell><mxCell id="29" value="Preprocess Tweets" style="rounded=1;whiteSpace=wrap;html=1;fontSize=14;" parent="1" vertex="1"><mxGeometry x="497" y="264" width="140" height="40" as="geometry"/></mxCell><mxCell id="125" style="edgeStyle=none;html=1;entryX=0.5;entryY=0;entryDx=0;entryDy=0;" edge="1" parent="1" source="32" target="36"><mxGeometry relative="1" as="geometry"/></mxCell><mxCell id="32" value="Dimension Reduction" style="rounded=1;whiteSpace=wrap;html=1;fontSize=14;" parent="1" vertex="1"><mxGeometry x="497" y="407" width="140" height="40" as="geometry"/></mxCell><mxCell id="111" value="" style="edgeStyle=none;html=1;" edge="1" parent="1" source="36" target="110"><mxGeometry relative="1" as="geometry"/></mxCell><mxCell id="116" value="" style="edgeStyle=none;html=1;" edge="1" parent="1" source="36" target="115"><mxGeometry relative="1" as="geometry"/></mxCell><mxCell id="36" value="Clustering" style="rounded=1;whiteSpace=wrap;html=1;fontSize=14;" parent="1" vertex="1"><mxGeometry x="497" y="585" width="140" height="40" as="geometry"/></mxCell><mxCell id="108" style="edgeStyle=none;html=1;" edge="1" parent="1" source="38" target="41"><mxGeometry relative="1" as="geometry"/></mxCell><mxCell id="131" value="" style="edgeStyle=none;html=1;fontColor=#000000;" edge="1" parent="1" source="38" target="130"><mxGeometry relative="1" as="geometry"/></mxCell><mxCell id="38" value="Keywords in Cluster" style="rounded=1;whiteSpace=wrap;html=1;fontSize=14;" parent="1" vertex="1"><mxGeometry x="497" y="1107" width="140" height="40" as="geometry"/></mxCell><mxCell id="146" value="" style="edgeStyle=none;html=1;fontColor=#000000;" edge="1" parent="1" source="41" target="145"><mxGeometry relative="1" as="geometry"/></mxCell><mxCell id="41" value="Hashtags" style="rounded=1;whiteSpace=wrap;html=1;fontSize=14;" parent="1" vertex="1"><mxGeometry x="497" y="1361" width="140" height="40" as="geometry"/></mxCell><mxCell id="61" value="" style="strokeWidth=2;html=1;shape=mxgraph.flowchart.database;whiteSpace=wrap;fontSize=14;" parent="1" vertex="1"><mxGeometry x="280" y="1880" width="60" height="60" as="geometry"/></mxCell><mxCell id="65" value="DataBase" style="swimlane;fontStyle=0;childLayout=stackLayout;horizontal=1;startSize=30;horizontalStack=0;resizeParent=1;resizeParentMax=0;resizeLast=0;collapsible=1;marginBottom=0;fontSize=14;" parent="1" vertex="1"><mxGeometry x="240" y="1950" width="140" height="330" as="geometry"/></mxCell><mxCell id="67" value="Tweet" style="text;strokeColor=none;fillColor=none;align=left;verticalAlign=middle;spacingLeft=4;spacingRight=4;overflow=hidden;points=[[0,0.5],[1,0.5]];portConstraint=eastwest;rotatable=0;fontSize=14;" parent="65" vertex="1"><mxGeometry y="30" width="140" height="30" as="geometry"/></mxCell><mxCell id="70" value="Date" style="text;strokeColor=none;fillColor=none;align=left;verticalAlign=middle;spacingLeft=4;spacingRight=4;overflow=hidden;points=[[0,0.5],[1,0.5]];portConstraint=eastwest;rotatable=0;fontSize=14;" parent="65" vertex="1"><mxGeometry y="60" width="140" height="30" as="geometry"/></mxCell><mxCell id="68" value="Language" style="text;strokeColor=none;fillColor=none;align=left;verticalAlign=middle;spacingLeft=4;spacingRight=4;overflow=hidden;points=[[0,0.5],[1,0.5]];portConstraint=eastwest;rotatable=0;fontSize=14;" parent="65" vertex="1"><mxGeometry y="90" width="140" height="30" as="geometry"/></mxCell><mxCell id="69" value="Embedding" style="text;strokeColor=none;fillColor=none;align=left;verticalAlign=middle;spacingLeft=4;spacingRight=4;overflow=hidden;points=[[0,0.5],[1,0.5]];portConstraint=eastwest;rotatable=0;fontSize=14;" parent="65" vertex="1"><mxGeometry y="120" width="140" height="30" as="geometry"/></mxCell><mxCell id="71" value="ESG Class" style="text;strokeColor=none;fillColor=none;align=left;verticalAlign=middle;spacingLeft=4;spacingRight=4;overflow=hidden;points=[[0,0.5],[1,0.5]];portConstraint=eastwest;rotatable=0;fontSize=14;" parent="65" vertex="1"><mxGeometry y="150" width="140" height="30" as="geometry"/></mxCell><mxCell id="182" value="Sentiment" style="text;strokeColor=none;fillColor=none;align=left;verticalAlign=middle;spacingLeft=4;spacingRight=4;overflow=hidden;points=[[0,0.5],[1,0.5]];portConstraint=eastwest;rotatable=0;fontSize=14;" vertex="1" parent="65"><mxGeometry y="180" width="140" height="30" as="geometry"/></mxCell><mxCell id="72" value="Cluster" style="text;strokeColor=none;fillColor=none;align=left;verticalAlign=middle;spacingLeft=4;spacingRight=4;overflow=hidden;points=[[0,0.5],[1,0.5]];portConstraint=eastwest;rotatable=0;fontSize=14;" parent="65" vertex="1"><mxGeometry y="210" width="140" height="30" as="geometry"/></mxCell><mxCell id="156" value="Cluster Sentiment" style="text;strokeColor=none;fillColor=none;align=left;verticalAlign=middle;spacingLeft=4;spacingRight=4;overflow=hidden;points=[[0,0.5],[1,0.5]];portConstraint=eastwest;rotatable=0;fontSize=14;" vertex="1" parent="65"><mxGeometry y="240" width="140" height="30" as="geometry"/></mxCell><mxCell id="73" value="Cluster Keywords" style="text;strokeColor=none;fillColor=none;align=left;verticalAlign=middle;spacingLeft=4;spacingRight=4;overflow=hidden;points=[[0,0.5],[1,0.5]];portConstraint=eastwest;rotatable=0;fontSize=14;" parent="65" vertex="1"><mxGeometry y="270" width="140" height="30" as="geometry"/></mxCell><mxCell id="74" value="Cluster Hashtags" style="text;strokeColor=none;fillColor=none;align=left;verticalAlign=middle;spacingLeft=4;spacingRight=4;overflow=hidden;points=[[0,0.5],[1,0.5]];portConstraint=eastwest;rotatable=0;fontSize=14;" parent="65" vertex="1"><mxGeometry y="300" width="140" height="30" as="geometry"/></mxCell><mxCell id="96" value="DataFrame ESG" style="swimlane;fontStyle=0;childLayout=stackLayout;horizontal=1;startSize=30;horizontalStack=0;resizeParent=1;resizeParentMax=0;resizeLast=0;collapsible=1;marginBottom=0;fontSize=14;" vertex="1" parent="1"><mxGeometry x="140" y="40" width="140" height="210" as="geometry"/></mxCell><mxCell id="97" value="Tweet" style="text;strokeColor=none;fillColor=none;align=left;verticalAlign=middle;spacingLeft=4;spacingRight=4;overflow=hidden;points=[[0,0.5],[1,0.5]];portConstraint=eastwest;rotatable=0;fontSize=14;" vertex="1" parent="96"><mxGeometry y="30" width="140" height="30" as="geometry"/></mxCell><mxCell id="98" value="Date" style="text;strokeColor=none;fillColor=none;align=left;verticalAlign=middle;spacingLeft=4;spacingRight=4;overflow=hidden;points=[[0,0.5],[1,0.5]];portConstraint=eastwest;rotatable=0;fontSize=14;" vertex="1" parent="96"><mxGeometry y="60" width="140" height="30" as="geometry"/></mxCell><mxCell id="99" value="Language" style="text;strokeColor=none;fillColor=none;align=left;verticalAlign=middle;spacingLeft=4;spacingRight=4;overflow=hidden;points=[[0,0.5],[1,0.5]];portConstraint=eastwest;rotatable=0;fontSize=14;" vertex="1" parent="96"><mxGeometry y="90" width="140" height="30" as="geometry"/></mxCell><mxCell id="101" value="Embedding" style="text;strokeColor=none;fillColor=none;align=left;verticalAlign=middle;spacingLeft=4;spacingRight=4;overflow=hidden;points=[[0,0.5],[1,0.5]];portConstraint=eastwest;rotatable=0;fontSize=14;" vertex="1" parent="96"><mxGeometry y="120" width="140" height="30" as="geometry"/></mxCell><mxCell id="100" value="ESG_Class" style="text;strokeColor=none;fillColor=none;align=left;verticalAlign=middle;spacingLeft=4;spacingRight=4;overflow=hidden;points=[[0,0.5],[1,0.5]];portConstraint=eastwest;rotatable=0;fontSize=14;" vertex="1" parent="96"><mxGeometry y="150" width="140" height="30" as="geometry"/></mxCell><mxCell id="102" value="Sentiment" style="text;strokeColor=none;fillColor=none;align=left;verticalAlign=middle;spacingLeft=4;spacingRight=4;overflow=hidden;points=[[0,0.5],[1,0.5]];portConstraint=eastwest;rotatable=0;fontSize=14;" vertex="1" parent="96"><mxGeometry y="180" width="140" height="30" as="geometry"/></mxCell><mxCell id="105" style="edgeStyle=none;html=1;entryX=0;entryY=0.5;entryDx=0;entryDy=0;entryPerimeter=0;" edge="1" parent="1" source="99" target="24"><mxGeometry relative="1" as="geometry"/></mxCell><mxCell id="112" style="edgeStyle=none;html=1;entryX=0.5;entryY=0;entryDx=0;entryDy=0;" edge="1" parent="1" source="110" target="38"><mxGeometry relative="1" as="geometry"/></mxCell><mxCell id="110" value="Sentiment in Cluster" style="rounded=1;whiteSpace=wrap;html=1;fontSize=14;" vertex="1" parent="1"><mxGeometry x="497" y="821" width="140" height="40" as="geometry"/></mxCell><mxCell id="118" value="" style="edgeStyle=none;html=1;" edge="1" parent="1" source="115" target="117"><mxGeometry relative="1" as="geometry"/></mxCell><mxCell id="120" value="" style="edgeStyle=none;html=1;" edge="1" parent="1" source="115" target="119"><mxGeometry relative="1" as="geometry"/></mxCell><mxCell id="122" value="" style="edgeStyle=none;html=1;" edge="1" parent="1" source="115" target="121"><mxGeometry relative="1" as="geometry"/></mxCell><mxCell id="115" value="&lt;font style=&quot;font-size: 13px&quot;&gt;&lt;b&gt;Clustering&lt;br&gt;Models&lt;/b&gt;&lt;/font&gt;" style="rhombus;whiteSpace=wrap;html=1;fontSize=14;rounded=1;" vertex="1" parent="1"><mxGeometry x="899" y="565" width="80" height="80" as="geometry"/></mxCell><mxCell id="117" value="&lt;b&gt;&lt;font color=&quot;#cc0000&quot;&gt;&lt;u&gt;KMeans wirh elbow method&lt;/u&gt;&lt;/font&gt;&lt;/b&gt;" style="ellipse;whiteSpace=wrap;html=1;fontSize=14;rounded=1;" vertex="1" parent="1"><mxGeometry x="879" y="415" width="120" height="60" as="geometry"/></mxCell><mxCell id="119" value="Hierarical DBScan" style="ellipse;whiteSpace=wrap;html=1;fontSize=14;rounded=1;" vertex="1" parent="1"><mxGeometry x="1039" y="575" width="120" height="60" as="geometry"/></mxCell><mxCell id="121" value="ToMATo" style="ellipse;whiteSpace=wrap;html=1;fontSize=14;rounded=1;" vertex="1" parent="1"><mxGeometry x="879" y="735" width="120" height="60" as="geometry"/></mxCell><mxCell id="126" value="UMAP&lt;br&gt;Could be skipped" style="text;html=1;align=center;verticalAlign=middle;resizable=0;points=[];autosize=1;strokeColor=none;fillColor=none;" vertex="1" parent="1"><mxGeometry x="609" y="440" width="110" height="30" as="geometry"/></mxCell><mxCell id="127" value="Remove #&lt;br&gt;Rmove urls" style="text;html=1;align=center;verticalAlign=middle;resizable=0;points=[];autosize=1;strokeColor=none;fillColor=none;" vertex="1" parent="1"><mxGeometry x="637" y="290" width="80" height="30" as="geometry"/></mxCell><mxCell id="129" value="&lt;font color=&quot;#000000&quot;&gt;Average of all tweets &lt;br&gt;sentiment in each cluster&lt;/font&gt;" style="text;html=1;align=center;verticalAlign=middle;resizable=0;points=[];autosize=1;strokeColor=none;fillColor=none;fontColor=#CC0000;" vertex="1" parent="1"><mxGeometry x="637" y="826" width="150" height="30" as="geometry"/></mxCell><mxCell id="133" value="" style="edgeStyle=none;html=1;fontColor=#000000;" edge="1" parent="1" source="130" target="132"><mxGeometry relative="1" as="geometry"/></mxCell><mxCell id="135" value="" style="edgeStyle=none;html=1;fontColor=#000000;" edge="1" parent="1" source="130" target="134"><mxGeometry relative="1" as="geometry"/></mxCell><mxCell id="137" value="" style="edgeStyle=none;html=1;fontColor=#000000;" edge="1" parent="1" source="130" target="136"><mxGeometry relative="1" as="geometry"/></mxCell><mxCell id="130" value="&lt;b style=&quot;font-size: 12px&quot;&gt;Keywords&lt;br&gt;Models&lt;/b&gt;" style="rhombus;whiteSpace=wrap;html=1;fontSize=14;rounded=1;" vertex="1" parent="1"><mxGeometry x="899" y="1087" width="80" height="80" as="geometry"/></mxCell><mxCell id="132" value="&lt;b&gt;&lt;u&gt;&lt;font color=&quot;#cc0000&quot;&gt;TFIDF Manual&lt;br&gt;Implementation&lt;/font&gt;&lt;/u&gt;&lt;/b&gt;" style="ellipse;whiteSpace=wrap;html=1;fontSize=14;rounded=1;" vertex="1" parent="1"><mxGeometry x="879" y="937" width="120" height="60" as="geometry"/></mxCell><mxCell id="134" value="TFIDF Scikit-Learn" style="ellipse;whiteSpace=wrap;html=1;fontSize=14;rounded=1;" vertex="1" parent="1"><mxGeometry x="1039" y="1097" width="132" height="60" as="geometry"/></mxCell><mxCell id="136" value="KeyBERT" style="ellipse;whiteSpace=wrap;html=1;fontSize=14;rounded=1;" vertex="1" parent="1"><mxGeometry x="879" y="1257" width="120" height="60" as="geometry"/></mxCell><mxCell id="138" value="" style="strokeWidth=2;html=1;shape=mxgraph.flowchart.annotation_2;align=left;labelPosition=right;pointerEvents=1;fontColor=#000000;direction=west;" vertex="1" parent="1"><mxGeometry x="1310" y="932" width="50" height="387" as="geometry"/></mxCell><mxCell id="140" value="Maximize Marginal Relevance" style="rounded=1;whiteSpace=wrap;html=1;absoluteArcSize=1;arcSize=14;strokeWidth=2;fontColor=#000000;" vertex="1" parent="1"><mxGeometry x="1368" y="1075.5" width="100" height="100" as="geometry"/></mxCell><mxCell id="141" value="+ Based on Semantic meaning&lt;br&gt;+ MMR included&lt;br&gt;- Need to calculate embeddings again" style="text;html=1;align=left;verticalAlign=middle;resizable=0;points=[];autosize=1;strokeColor=none;fillColor=none;fontColor=#000000;" vertex="1" parent="1"><mxGeometry x="1001" y="1267" width="220" height="50" as="geometry"/></mxCell><mxCell id="142" value="+ Good running time&lt;br&gt;+ Simple implementation&lt;br&gt;- Results are worse than the manual &lt;br&gt;implementation" style="text;html=1;align=center;verticalAlign=middle;resizable=0;points=[];autosize=1;strokeColor=none;fillColor=none;fontColor=#000000;" vertex="1" parent="1"><mxGeometry x="1128" y="1130" width="210" height="60" as="geometry"/></mxCell><mxCell id="144" value="+ Diversifies the results&lt;br&gt;+ Eliminates stopwords&lt;br&gt;- Need of embeddings" style="text;html=1;align=center;verticalAlign=middle;resizable=0;points=[];autosize=1;strokeColor=none;fillColor=none;fontColor=#000000;" vertex="1" parent="1"><mxGeometry x="1468" y="1102" width="140" height="50" as="geometry"/></mxCell><mxCell id="152" value="" style="edgeStyle=none;html=1;fontColor=#000000;" edge="1" parent="1" source="145" target="151"><mxGeometry relative="1" as="geometry"/></mxCell><mxCell id="158" value="" style="edgeStyle=none;html=1;fontColor=#000000;" edge="1" parent="1" source="145" target="157"><mxGeometry relative="1" as="geometry"/></mxCell><mxCell id="145" value="&lt;b&gt;SMT&lt;br&gt;Models&lt;/b&gt;" style="rhombus;whiteSpace=wrap;html=1;fontSize=14;rounded=1;" vertex="1" parent="1"><mxGeometry x="528" y="1461" width="82" height="89" as="geometry"/></mxCell><mxCell id="185" style="edgeStyle=none;html=1;entryX=0.5;entryY=0;entryDx=0;entryDy=0;entryPerimeter=0;fontColor=#000000;" edge="1" parent="1" source="151" target="61"><mxGeometry relative="1" as="geometry"/></mxCell><mxCell id="151" value="Model 1" style="shape=process;whiteSpace=wrap;html=1;backgroundOutline=1;fontSize=14;rounded=1;" vertex="1" parent="1"><mxGeometry x="250" y="1475.5" width="120" height="60" as="geometry"/></mxCell><mxCell id="154" value="&lt;font color=&quot;#000000&quot;&gt;+ Good Running Time&lt;br&gt;+ Good Results when combined with MMR&lt;br&gt;- Complex Implementation&lt;br&gt;&lt;br&gt;&lt;/font&gt;" style="text;html=1;align=left;verticalAlign=middle;resizable=0;points=[];autosize=1;strokeColor=none;fillColor=none;fontColor=#CC0000;" vertex="1" parent="1"><mxGeometry x="1001" y="942" width="240" height="60" as="geometry"/></mxCell><mxCell id="164" value="" style="edgeStyle=none;html=1;fontColor=#000000;" edge="1" parent="1" source="157" target="163"><mxGeometry relative="1" as="geometry"/></mxCell><mxCell id="157" value="Model 2" style="shape=process;whiteSpace=wrap;html=1;backgroundOutline=1;fontSize=14;rounded=1;" vertex="1" parent="1"><mxGeometry x="878" y="1475.5" width="120" height="60" as="geometry"/></mxCell><mxCell id="166" value="" style="edgeStyle=none;html=1;fontColor=#000000;" edge="1" parent="1" source="163" target="165"><mxGeometry relative="1" as="geometry"/></mxCell><mxCell id="163" value="Each tweet's keywords" style="whiteSpace=wrap;html=1;fontSize=14;rounded=1;" vertex="1" parent="1"><mxGeometry x="878" y="1615.5" width="120" height="34.5" as="geometry"/></mxCell><mxCell id="178" style="edgeStyle=none;html=1;entryX=0.5;entryY=0;entryDx=0;entryDy=0;entryPerimeter=0;fontColor=#000000;" edge="1" parent="1" source="165" target="167"><mxGeometry relative="1" as="geometry"/></mxCell><mxCell id="165" value="&lt;span&gt;Each tweet's hashtags&lt;/span&gt;" style="rounded=1;whiteSpace=wrap;html=1;fontSize=14;" vertex="1" parent="1"><mxGeometry x="878" y="1717.25" width="120" height="32.75" as="geometry"/></mxCell><mxCell id="167" value="" style="strokeWidth=2;html=1;shape=mxgraph.flowchart.database;whiteSpace=wrap;fontSize=14;" vertex="1" parent="1"><mxGeometry x="909" y="1910" width="60" height="60" as="geometry"/></mxCell><mxCell id="168" value="DataBase" style="swimlane;fontStyle=0;childLayout=stackLayout;horizontal=1;startSize=30;horizontalStack=0;resizeParent=1;resizeParentMax=0;resizeLast=0;collapsible=1;marginBottom=0;fontSize=14;" vertex="1" parent="1"><mxGeometry x="869" y="1980" width="140" height="300" as="geometry"/></mxCell><mxCell id="169" value="Tweet" style="text;strokeColor=none;fillColor=none;align=left;verticalAlign=middle;spacingLeft=4;spacingRight=4;overflow=hidden;points=[[0,0.5],[1,0.5]];portConstraint=eastwest;rotatable=0;fontSize=14;" vertex="1" parent="168"><mxGeometry y="30" width="140" height="30" as="geometry"/></mxCell><mxCell id="170" value="Date" style="text;strokeColor=none;fillColor=none;align=left;verticalAlign=middle;spacingLeft=4;spacingRight=4;overflow=hidden;points=[[0,0.5],[1,0.5]];portConstraint=eastwest;rotatable=0;fontSize=14;" vertex="1" parent="168"><mxGeometry y="60" width="140" height="30" as="geometry"/></mxCell><mxCell id="171" value="Language" style="text;strokeColor=none;fillColor=none;align=left;verticalAlign=middle;spacingLeft=4;spacingRight=4;overflow=hidden;points=[[0,0.5],[1,0.5]];portConstraint=eastwest;rotatable=0;fontSize=14;" vertex="1" parent="168"><mxGeometry y="90" width="140" height="30" as="geometry"/></mxCell><mxCell id="172" value="Embedding" style="text;strokeColor=none;fillColor=none;align=left;verticalAlign=middle;spacingLeft=4;spacingRight=4;overflow=hidden;points=[[0,0.5],[1,0.5]];portConstraint=eastwest;rotatable=0;fontSize=14;" vertex="1" parent="168"><mxGeometry y="120" width="140" height="30" as="geometry"/></mxCell><mxCell id="173" value="ESG Class" style="text;strokeColor=none;fillColor=none;align=left;verticalAlign=middle;spacingLeft=4;spacingRight=4;overflow=hidden;points=[[0,0.5],[1,0.5]];portConstraint=eastwest;rotatable=0;fontSize=14;" vertex="1" parent="168"><mxGeometry y="150" width="140" height="30" as="geometry"/></mxCell><mxCell id="174" value="Sentiment" style="text;strokeColor=none;fillColor=none;align=left;verticalAlign=middle;spacingLeft=4;spacingRight=4;overflow=hidden;points=[[0,0.5],[1,0.5]];portConstraint=eastwest;rotatable=0;fontSize=14;" vertex="1" parent="168"><mxGeometry y="180" width="140" height="30" as="geometry"/></mxCell><mxCell id="175" value="Cluster" style="text;strokeColor=none;fillColor=none;align=left;verticalAlign=middle;spacingLeft=4;spacingRight=4;overflow=hidden;points=[[0,0.5],[1,0.5]];portConstraint=eastwest;rotatable=0;fontSize=14;" vertex="1" parent="168"><mxGeometry y="210" width="140" height="30" as="geometry"/></mxCell><mxCell id="176" value="Keywords" style="text;strokeColor=none;fillColor=none;align=left;verticalAlign=middle;spacingLeft=4;spacingRight=4;overflow=hidden;points=[[0,0.5],[1,0.5]];portConstraint=eastwest;rotatable=0;fontSize=14;" vertex="1" parent="168"><mxGeometry y="240" width="140" height="30" as="geometry"/></mxCell><mxCell id="177" value="Hashtags" style="text;strokeColor=none;fillColor=none;align=left;verticalAlign=middle;spacingLeft=4;spacingRight=4;overflow=hidden;points=[[0,0.5],[1,0.5]];portConstraint=eastwest;rotatable=0;fontSize=14;" vertex="1" parent="168"><mxGeometry y="270" width="140" height="30" as="geometry"/></mxCell><mxCell id="179" value="Find the cluster's&amp;nbsp;&lt;br&gt;keywords that&amp;nbsp;&lt;br&gt;appear in each tweet" style="text;html=1;align=center;verticalAlign=middle;resizable=0;points=[];autosize=1;strokeColor=none;fillColor=none;fontColor=#000000;" vertex="1" parent="1"><mxGeometry x="998" y="1607.75" width="130" height="50" as="geometry"/></mxCell><mxCell id="180" value="Find the cluster's&amp;nbsp;&lt;br&gt;hashtags that&amp;nbsp;&lt;br&gt;appear in each tweet" style="text;html=1;align=center;verticalAlign=middle;resizable=0;points=[];autosize=1;strokeColor=none;fillColor=none;fontColor=#000000;" vertex="1" parent="1"><mxGeometry x="999" y="1708.63" width="130" height="50" as="geometry"/></mxCell><mxCell id="183" value="Find all hashtags&lt;br&gt;Apply MMR&amp;nbsp;&lt;br&gt;Take top 10" style="text;html=1;align=center;verticalAlign=middle;resizable=0;points=[];autosize=1;strokeColor=none;fillColor=none;fontColor=#000000;" vertex="1" parent="1"><mxGeometry x="637" y="1356" width="110" height="50" as="geometry"/></mxCell><mxCell id="186" value="+ Good performance&lt;br&gt;+ No need for additional parameters&lt;br&gt;- A bit slower than the other models&lt;br&gt;- Tendency to have many clusters (3-5) with small databases" style="text;html=1;align=left;verticalAlign=middle;resizable=0;points=[];autosize=1;strokeColor=none;fillColor=none;fontSize=13;fontColor=#000000;" vertex="1" parent="1"><mxGeometry x="1020" y="410" width="360" height="70" as="geometry"/></mxCell><mxCell id="187" value="+ Good performance&lt;br&gt;+ Eliminates tweets that don't fit&amp;nbsp;in any cluster&lt;br&gt;+ The hierarchy could be visualised&lt;br&gt;- Need for additional parameter (minimal topic size)" style="text;html=1;align=left;verticalAlign=middle;resizable=0;points=[];autosize=1;strokeColor=none;fillColor=none;fontSize=13;fontColor=#000000;" vertex="1" parent="1"><mxGeometry x="1171" y="570" width="310" height="70" as="geometry"/></mxCell><mxCell id="188" value="+ Good performance&lt;br&gt;+ No need for additional parameter&lt;br&gt;- Tendency to create very large clusters&lt;br&gt;- Worse results than other models on the tesla dataset" style="text;html=1;align=left;verticalAlign=middle;resizable=0;points=[];autosize=1;strokeColor=none;fillColor=none;fontSize=13;fontColor=#000000;" vertex="1" parent="1"><mxGeometry x="1009" y="730" width="330" height="70" as="geometry"/></mxCell></root></mxGraphModel></diagram></mxfile>